<svg xmlns="http://www.w3.org/2000/svg" width="130" height="127" viewBox="0 0 130 127"><g transform="translate(-1458 -602)"><path d="M26,0h78a26,26,0,0,1,26,26v75a26,26,0,0,1-26,26H26A26,26,0,0,1,0,101V26A26,26,0,0,1,26,0Z" transform="translate(1458 602)" fill="#ff7e46"/><path d="M80.268,164.213,74.6,100.6h62.308l-5.668,63.579L105.7,171.255" transform="translate(1417.4 531.4)" fill="#e44d26"/><path d="M256,191.024V131h25.469l-4.86,54.271" transform="translate(1267.154 506)" fill="#f16529"/><path d="M142,176.3h19.579v7.8H150.553l.721,7.986h10.3v7.78H144.13m.343,3.916H152.3l.55,6.234,8.725,2.336v8.141l-16.006-4.465" transform="translate(1361.575 468.7)" fill="#ebebeb"/><path d="M275.344,176.3H255.8v7.8h18.823m-.7,7.986H255.8v7.8h9.618l-.91,10.133-8.707,2.336v8.106l15.972-4.431" transform="translate(1267.32 468.7)" fill="#fff"/></g></svg>